<svg width="165" height="33" viewBox="0 0 165 33" fill="none" xmlns="http://www.w3.org/2000/svg"><path fill-rule="evenodd" clip-rule="evenodd" d="M11.356 32.4294C14.7922 32.9508 18.0064 32.9321 21.4166 32.2984C24.5057 31.7242 27.4556 30.7265 28.9476 28.9346C33.2418 23.7767 33.0202 7.8453 28.1872 3.87869C24.491 0.844965 16.2093 0.243702 10.6088 1.24627C3.5982 2.50142 1.32588 4.91099 0.299787 12.0097C-0.305368 16.1967 -0.235144 25.0675 2.82676 28.7525C4.73605 31.0497 8.4828 31.9934 11.356 32.4294Z" fill="url(#paint0_linear_3_1345)"></path><path d="M42.1137 24.0888V20.72H45.1082C45.8568 20.72 46.5321 20.6099 47.1339 20.3897C47.7357 20.1549 48.2495 19.8319 48.6752 19.4209C49.1009 18.9952 49.4238 18.4888 49.644 17.9017C49.8642 17.2998 49.9743 16.6393 49.9743 15.92C49.9743 15.1714 49.8642 14.5035 49.644 13.9163C49.4238 13.3292 49.1009 12.8301 48.6752 12.4191C48.2495 12.0081 47.7357 11.6998 47.1339 11.4943C46.5321 11.2741 45.8568 11.164 45.1082 11.164H42.1137V7.79523H44.91C46.3633 7.79523 47.633 8.00807 48.7192 8.43376C49.8055 8.85945 50.7156 9.43927 51.4495 10.1732C52.1834 10.9072 52.7266 11.7512 53.0789 12.7053C53.4458 13.6448 53.6293 14.6356 53.6293 15.6778V16.1622C53.6293 17.131 53.4458 18.0925 53.0789 19.0466C52.7266 19.9861 52.1834 20.8374 51.4495 21.6007C50.7156 22.3494 49.8055 22.9512 48.7192 23.4062C47.633 23.8613 46.3633 24.0888 44.91 24.0888H42.1137ZM38.9431 24.0888V7.79523H42.5541V24.0888H38.9431ZM55.1981 24.0007V11.9347H58.7211V24.0007H55.1981ZM53.5908 14.5328V11.9347H58.7211V14.5328H53.5908ZM56.5633 10.7457C55.9027 10.7457 55.411 10.5769 55.088 10.2393C54.7798 9.88697 54.6256 9.44661 54.6256 8.91816C54.6256 8.37505 54.7798 7.93468 55.088 7.59706C55.411 7.24477 55.9027 7.06862 56.5633 7.06862C57.2238 7.06862 57.7082 7.24477 58.0165 7.59706C58.3394 7.93468 58.5009 8.37505 58.5009 8.91816C58.5009 9.44661 58.3394 9.88697 58.0165 10.2393C57.7082 10.5769 57.2238 10.7457 56.5633 10.7457ZM66.0748 24.4191C65.0326 24.4191 64.1225 24.2503 63.3446 23.9127C62.5813 23.5604 61.9427 23.0906 61.429 22.5035C60.9152 21.9163 60.5336 21.2558 60.284 20.5218C60.0345 19.7732 59.9097 19.0026 59.9097 18.2099V17.7916C59.9097 16.9695 60.0418 16.1842 60.306 15.4356C60.5703 14.6723 60.9592 13.9971 61.473 13.4099C61.9868 12.8228 62.6253 12.3604 63.3886 12.0228C64.1666 11.6851 65.0547 11.5163 66.0528 11.5163C67.1391 11.5163 68.1005 11.7292 68.9372 12.1549C69.7739 12.5659 70.4418 13.1457 70.9409 13.8943C71.44 14.6429 71.7189 15.5017 71.7776 16.4705H68.3207C68.262 15.9273 68.0418 15.4723 67.6602 15.1053C67.2932 14.7237 66.7574 14.5328 66.0528 14.5328C65.4657 14.5328 64.9739 14.6796 64.5776 14.9732C64.1959 15.2668 63.9097 15.6705 63.7189 16.1842C63.5281 16.698 63.4326 17.3072 63.4326 18.0117C63.4326 18.6576 63.5207 19.2448 63.6969 19.7732C63.873 20.287 64.1519 20.6906 64.5336 20.9842C64.9299 21.2631 65.4436 21.4026 66.0748 21.4026C66.5446 21.4026 66.9409 21.3218 67.2638 21.1604C67.6014 20.9842 67.8657 20.7494 68.0565 20.4558C68.262 20.1475 68.3868 19.7952 68.4308 19.3989H71.8657C71.8216 20.3971 71.5427 21.2778 71.029 22.0411C70.5152 22.7897 69.8326 23.3769 68.9813 23.8026C68.1299 24.2136 67.1611 24.4191 66.0748 24.4191ZM78.3243 24.4191C77.2967 24.4191 76.3866 24.2429 75.594 23.8906C74.816 23.5383 74.1628 23.0686 73.6344 22.4815C73.1206 21.8796 72.7243 21.2117 72.4454 20.4778C72.1811 19.7292 72.049 18.9659 72.049 18.1879V17.7475C72.049 16.9402 72.1811 16.1695 72.4454 15.4356C72.7243 14.687 73.1206 14.0191 73.6344 13.4319C74.1481 12.8448 74.7866 12.3824 75.55 12.0448C76.3279 11.6925 77.2087 11.5163 78.1922 11.5163C79.4839 11.5163 80.5701 11.8099 81.4509 12.3971C82.3463 12.9695 83.0288 13.7255 83.4986 14.665C83.9683 15.5897 84.2032 16.6026 84.2032 17.7035V18.8925H73.5243V16.8888H82.0674L80.9224 17.8136C80.9224 17.0943 80.8197 16.4778 80.6142 15.964C80.4087 15.4503 80.1004 15.0613 79.6894 14.7971C79.2931 14.5182 78.794 14.3787 78.1922 14.3787C77.5756 14.3787 77.0545 14.5182 76.6289 14.7971C76.2032 15.076 75.8802 15.487 75.66 16.0301C75.4399 16.5585 75.3298 17.2117 75.3298 17.9897C75.3298 18.709 75.4325 19.3402 75.638 19.8833C75.8435 20.4117 76.1665 20.8228 76.6068 21.1163C77.0472 21.4099 77.6197 21.5567 78.3243 21.5567C78.9701 21.5567 79.4986 21.4319 79.9096 21.1824C80.3206 20.9328 80.5995 20.6246 80.7463 20.2576H83.983C83.8068 21.065 83.4619 21.7842 82.9481 22.4154C82.4344 23.0466 81.7885 23.5383 81.0105 23.8906C80.2325 24.2429 79.3371 24.4191 78.3243 24.4191ZM85.4147 24.0007V7.92734H89.0257V24.0007H85.4147ZM88.5853 17.5273V14.5328H94.7945V17.5273H88.5853ZM88.5853 10.9218V7.92734H95.0587V10.9218H88.5853ZM101.794 24.4191C100.737 24.4191 99.7978 24.2576 98.9758 23.9347C98.1537 23.5971 97.4565 23.142 96.884 22.5695C96.3262 21.9971 95.9005 21.3439 95.6069 20.6099C95.3134 19.8613 95.1666 19.076 95.1666 18.2539V17.7475C95.1666 16.9108 95.3134 16.1182 95.6069 15.3695C95.9152 14.6062 96.3556 13.9383 96.928 13.3659C97.5152 12.7934 98.2198 12.3457 99.0418 12.0228C99.8638 11.6851 100.781 11.5163 101.794 11.5163C102.836 11.5163 103.761 11.6851 104.568 12.0228C105.39 12.3457 106.088 12.7934 106.66 13.3659C107.233 13.9383 107.673 14.6062 107.981 15.3695C108.29 16.1182 108.444 16.9108 108.444 17.7475V18.2539C108.444 19.076 108.297 19.8613 108.003 20.6099C107.71 21.3439 107.277 21.9971 106.704 22.5695C106.146 23.142 105.456 23.5971 104.634 23.9347C103.812 24.2576 102.866 24.4191 101.794 24.4191ZM101.794 21.4466C102.484 21.4466 103.056 21.2998 103.512 21.0062C103.967 20.7127 104.312 20.3017 104.546 19.7732C104.796 19.2448 104.921 18.6576 104.921 18.0117C104.921 17.3218 104.796 16.72 104.546 16.2062C104.297 15.6778 103.937 15.2594 103.467 14.9512C103.012 14.6429 102.455 14.4888 101.794 14.4888C101.148 14.4888 100.59 14.6429 100.121 14.9512C99.651 15.2594 99.2913 15.6778 99.0418 16.2062C98.8069 16.72 98.6895 17.3218 98.6895 18.0117C98.6895 18.6576 98.8069 19.2448 99.0418 19.7732C99.2767 20.3017 99.629 20.7127 100.099 21.0062C100.568 21.2998 101.134 21.4466 101.794 21.4466ZM109.581 24.0007V11.9347H112.378V17.109H112.311C112.311 15.4062 112.671 14.0925 113.39 13.1677C114.124 12.2429 115.181 11.7806 116.561 11.7806H117.023V14.8191H116.143C115.174 14.8191 114.425 15.0833 113.897 15.6117C113.368 16.1255 113.104 16.8741 113.104 17.8576V24.0007H109.581ZM123.29 24.1549C122.071 24.1549 121.088 24.0081 120.339 23.7145C119.591 23.4062 119.04 22.8998 118.688 22.1952C118.35 21.476 118.181 20.5072 118.181 19.2888V8.67596H121.462V19.4209C121.462 19.9934 121.609 20.4338 121.903 20.742C122.211 21.0356 122.644 21.1824 123.202 21.1824H124.985V24.1549H123.29ZM116.354 14.5108V11.9347H124.985V14.5108H116.354ZM130.106 24.375C128.712 24.375 127.64 23.9273 126.892 23.0319C126.143 22.1218 125.769 20.7567 125.769 18.9365V11.9347H129.292V19.1127C129.292 19.7585 129.475 20.2723 129.842 20.6539C130.209 21.0356 130.701 21.2264 131.317 21.2264C131.949 21.2264 132.462 21.0283 132.859 20.6319C133.255 20.2356 133.453 19.6998 133.453 19.0246V11.9347H136.976V24.0007H134.18V18.9145H134.422C134.422 20.1328 134.261 21.153 133.938 21.975C133.629 22.7824 133.167 23.3842 132.55 23.7805C131.934 24.1769 131.171 24.375 130.261 24.375H130.106ZM138.903 24.0007V11.9347H141.7V17.109H141.502C141.502 15.876 141.656 14.8484 141.964 14.0264C142.287 13.2044 142.771 12.5879 143.417 12.1769C144.063 11.7659 144.848 11.5604 145.773 11.5604H145.927C147.336 11.5604 148.408 12.0228 149.142 12.9475C149.891 13.8576 150.265 15.2448 150.265 17.109V24.0007H146.742V16.9108C146.742 16.265 146.551 15.7365 146.169 15.3255C145.788 14.9145 145.274 14.709 144.628 14.709C143.968 14.709 143.432 14.9218 143.021 15.3475C142.625 15.7585 142.426 16.3017 142.426 16.9769V24.0007H138.903ZM157.472 24.4191C156.445 24.4191 155.535 24.2429 154.742 23.8906C153.964 23.5383 153.311 23.0686 152.783 22.4815C152.269 21.8796 151.872 21.2117 151.594 20.4778C151.329 19.7292 151.197 18.9659 151.197 18.1879V17.7475C151.197 16.9402 151.329 16.1695 151.594 15.4356C151.872 14.687 152.269 14.0191 152.783 13.4319C153.296 12.8448 153.935 12.3824 154.698 12.0448C155.476 11.6925 156.357 11.5163 157.34 11.5163C158.632 11.5163 159.718 11.8099 160.599 12.3971C161.494 12.9695 162.177 13.7255 162.647 14.665C163.117 15.5897 163.351 16.6026 163.351 17.7035V18.8925H152.672V16.8888H161.216L160.071 17.8136C160.071 17.0943 159.968 16.4778 159.762 15.964C159.557 15.4503 159.249 15.0613 158.838 14.7971C158.441 14.5182 157.942 14.3787 157.34 14.3787C156.724 14.3787 156.203 14.5182 155.777 14.7971C155.351 15.076 155.028 15.487 154.808 16.0301C154.588 16.5585 154.478 17.2117 154.478 17.9897C154.478 18.709 154.581 19.3402 154.786 19.8833C154.992 20.4117 155.315 20.8228 155.755 21.1163C156.195 21.4099 156.768 21.5567 157.472 21.5567C158.118 21.5567 158.647 21.4319 159.058 21.1824C159.469 20.9328 159.748 20.6246 159.894 20.2576H163.131C162.955 21.065 162.61 21.7842 162.096 22.4154C161.583 23.0466 160.937 23.5383 160.159 23.8906C159.381 24.2429 158.485 24.4191 157.472 24.4191Z" fill="white"></path><circle cx="9.17427" cy="10.12" r="2.86238" fill="white"></circle><circle cx="9.17427" cy="16.8723" r="2.86238" fill="white"></circle><circle cx="16.0733" cy="23.6246" r="2.86238" fill="white"></circle><circle cx="16.0733" cy="10.12" r="2.86238" fill="white"></circle><circle cx="9.17427" cy="23.6246" r="2.86238" fill="white"></circle><circle cx="22.8256" cy="16.8723" r="2.86238" fill="white"></circle><defs><linearGradient id="paint0_linear_3_1345" x1="16" y1="0.798889" x2="16" y2="32.7989" gradientUnits="userSpaceOnUse"><stop stop-color="#FF7A6A"></stop><stop offset="1" stop-color="#FF3B64"></stop></linearGradient></defs></svg>